<?xml version="1.0" encoding="UTF-8" standalone="no"?>
<!DOCTYPE svg PUBLIC "-//W3C//DTD SVG 1.1//EN"
 "http://www.w3.org/Graphics/SVG/1.1/DTD/svg11.dtd">
<!-- Generated by graphviz version 13.1.0 (20250701.0955)
 -->
<!-- Title: src/driver_ov2640.h Pages: 1 -->
<svg width="379pt" height="232pt"
 viewBox="0.00 0.00 379.00 232.00" xmlns="http://www.w3.org/2000/svg" xmlns:xlink="http://www.w3.org/1999/xlink">
<g id="graph0" class="graph" transform="scale(1 1) rotate(0) translate(4 228)">
<title>src/driver_ov2640.h</title>
<!-- Node1 -->
<g id="Node000001" class="node">
<title>Node1</title>
<g id="a_Node000001"><a xlink:title="driver ov2640 header file">
<polygon fill="#999999" stroke="#666666" points="307,-224 205.5,-224 205.5,-204 307,-204 307,-224"/>
<text xml:space="preserve" text-anchor="middle" x="256.25" y="-210.5" font-family="Helvetica,sans-Serif" font-size="10.00">src/driver_ov2640.h</text>
</a>
</g>
</g>
<!-- Node2 -->
<g id="Node000002" class="node">
<title>Node2</title>
<g id="a_Node000002"><a xlink:href="driver__ov2640__interface_8h.html" target="_top" xlink:title="driver ov2640 interface header file">
<polygon fill="white" stroke="#666666" points="251.88,-168 134.62,-168 134.62,-136 251.88,-136 251.88,-168"/>
<text xml:space="preserve" text-anchor="start" x="142.62" y="-154.5" font-family="Helvetica,sans-Serif" font-size="10.00">interface/driver_ov2640</text>
<text xml:space="preserve" text-anchor="middle" x="193.25" y="-142.5" font-family="Helvetica,sans-Serif" font-size="10.00">_interface.h</text>
</a>
</g>
</g>
<!-- Node1&#45;&gt;Node2 -->
<g id="edge1_Node000001_Node000002" class="edge">
<title>Node1&#45;&gt;Node2</title>
<g id="a_edge1_Node000001_Node000002"><a xlink:title=" ">
<path fill="none" stroke="#63b8ff" d="M238.31,-195.92C229.12,-187.16 218.03,-176.6 209.15,-168.14"/>
<polygon fill="#63b8ff" stroke="#63b8ff" points="235.66,-198.22 245.31,-202.58 240.48,-193.15 235.66,-198.22"/>
</a>
</g>
</g>
<!-- Node8 -->
<g id="Node000008" class="node">
<title>Node8</title>
<g id="a_Node000008"><a xlink:href="driver__ov2640_8c.html" target="_top" xlink:title="driver ov2640 source file">
<polygon fill="white" stroke="#666666" points="371,-162 269.5,-162 269.5,-142 371,-142 371,-162"/>
<text xml:space="preserve" text-anchor="middle" x="320.25" y="-148.5" font-family="Helvetica,sans-Serif" font-size="10.00">src/driver_ov2640.c</text>
</a>
</g>
</g>
<!-- Node1&#45;&gt;Node8 -->
<g id="edge7_Node000001_Node000008" class="edge">
<title>Node1&#45;&gt;Node8</title>
<g id="a_edge7_Node000001_Node000008"><a xlink:title=" ">
<path fill="none" stroke="#63b8ff" d="M274.49,-195.9C286.22,-184.91 300.99,-171.05 310.53,-162.11"/>
<polygon fill="#63b8ff" stroke="#63b8ff" points="272.26,-193.2 267.35,-202.59 277.04,-198.3 272.26,-193.2"/>
</a>
</g>
</g>
<!-- Node3 -->
<g id="Node000003" class="node">
<title>Node3</title>
<g id="a_Node000003"><a xlink:href="driver__ov2640__basic_8h.html" target="_top" xlink:title="driver ov2640 basic header file">
<polygon fill="white" stroke="#666666" points="116.5,-100 0,-100 0,-68 116.5,-68 116.5,-100"/>
<text xml:space="preserve" text-anchor="start" x="8" y="-86.5" font-family="Helvetica,sans-Serif" font-size="10.00">example/driver_ov2640</text>
<text xml:space="preserve" text-anchor="middle" x="58.25" y="-74.5" font-family="Helvetica,sans-Serif" font-size="10.00">_basic.h</text>
</a>
</g>
</g>
<!-- Node2&#45;&gt;Node3 -->
<g id="edge2_Node000002_Node000003" class="edge">
<title>Node2&#45;&gt;Node3</title>
<g id="a_edge2_Node000002_Node000003"><a xlink:title=" ">
<path fill="none" stroke="#63b8ff" d="M151.26,-130.47C131.38,-120.75 108.03,-109.34 89.7,-100.38"/>
<polygon fill="#63b8ff" stroke="#63b8ff" points="149.72,-133.61 160.24,-134.86 152.79,-127.32 149.72,-133.61"/>
</a>
</g>
</g>
<!-- Node5 -->
<g id="Node000005" class="node">
<title>Node5</title>
<g id="a_Node000005"><a xlink:href="driver__ov2640__interface__template_8c.html" target="_top" xlink:title="driver ov2640 interface template source file">
<polygon fill="white" stroke="#666666" points="251.88,-100 134.62,-100 134.62,-68 251.88,-68 251.88,-100"/>
<text xml:space="preserve" text-anchor="start" x="142.62" y="-86.5" font-family="Helvetica,sans-Serif" font-size="10.00">interface/driver_ov2640</text>
<text xml:space="preserve" text-anchor="middle" x="193.25" y="-74.5" font-family="Helvetica,sans-Serif" font-size="10.00">_interface_template.c</text>
</a>
</g>
</g>
<!-- Node2&#45;&gt;Node5 -->
<g id="edge4_Node000002_Node000005" class="edge">
<title>Node2&#45;&gt;Node5</title>
<g id="a_edge4_Node000002_Node000005"><a xlink:title=" ">
<path fill="none" stroke="#63b8ff" d="M193.25,-124.31C193.25,-116.12 193.25,-107.38 193.25,-100.22"/>
<polygon fill="#63b8ff" stroke="#63b8ff" points="189.75,-124.18 193.25,-134.18 196.75,-124.18 189.75,-124.18"/>
</a>
</g>
</g>
<!-- Node6 -->
<g id="Node000006" class="node">
<title>Node6</title>
<g id="a_Node000006"><a xlink:href="driver__ov2640__register__test_8h.html" target="_top" xlink:title="driver ov2640 register test header file">
<polygon fill="white" stroke="#666666" points="366.38,-100 270.12,-100 270.12,-68 366.38,-68 366.38,-100"/>
<text xml:space="preserve" text-anchor="start" x="278.12" y="-86.5" font-family="Helvetica,sans-Serif" font-size="10.00">test/driver_ov2640</text>
<text xml:space="preserve" text-anchor="middle" x="318.25" y="-74.5" font-family="Helvetica,sans-Serif" font-size="10.00">_register_test.h</text>
</a>
</g>
</g>
<!-- Node2&#45;&gt;Node6 -->
<g id="edge5_Node000002_Node000006" class="edge">
<title>Node2&#45;&gt;Node6</title>
<g id="a_edge5_Node000002_Node000006"><a xlink:title=" ">
<path fill="none" stroke="#63b8ff" d="M232.64,-130.2C250.94,-120.54 272.31,-109.26 289.13,-100.38"/>
<polygon fill="#63b8ff" stroke="#63b8ff" points="231.1,-127.05 223.9,-134.82 234.37,-133.25 231.1,-127.05"/>
</a>
</g>
</g>
<!-- Node4 -->
<g id="Node000004" class="node">
<title>Node4</title>
<g id="a_Node000004"><a xlink:href="driver__ov2640__basic_8c.html" target="_top" xlink:title="driver ov2640 basic source file">
<polygon fill="white" stroke="#666666" points="116.5,-32 0,-32 0,0 116.5,0 116.5,-32"/>
<text xml:space="preserve" text-anchor="start" x="8" y="-18.5" font-family="Helvetica,sans-Serif" font-size="10.00">example/driver_ov2640</text>
<text xml:space="preserve" text-anchor="middle" x="58.25" y="-6.5" font-family="Helvetica,sans-Serif" font-size="10.00">_basic.c</text>
</a>
</g>
</g>
<!-- Node3&#45;&gt;Node4 -->
<g id="edge3_Node000003_Node000004" class="edge">
<title>Node3&#45;&gt;Node4</title>
<g id="a_edge3_Node000003_Node000004"><a xlink:title=" ">
<path fill="none" stroke="#63b8ff" d="M58.25,-56.31C58.25,-48.12 58.25,-39.38 58.25,-32.22"/>
<polygon fill="#63b8ff" stroke="#63b8ff" points="54.75,-56.18 58.25,-66.18 61.75,-56.18 54.75,-56.18"/>
</a>
</g>
</g>
<!-- Node7 -->
<g id="Node000007" class="node">
<title>Node7</title>
<g id="a_Node000007"><a xlink:href="driver__ov2640__register__test_8c.html" target="_top" xlink:title="driver ov2640 register test source file">
<polygon fill="white" stroke="#666666" points="366.38,-32 270.12,-32 270.12,0 366.38,0 366.38,-32"/>
<text xml:space="preserve" text-anchor="start" x="278.12" y="-18.5" font-family="Helvetica,sans-Serif" font-size="10.00">test/driver_ov2640</text>
<text xml:space="preserve" text-anchor="middle" x="318.25" y="-6.5" font-family="Helvetica,sans-Serif" font-size="10.00">_register_test.c</text>
</a>
</g>
</g>
<!-- Node6&#45;&gt;Node7 -->
<g id="edge6_Node000006_Node000007" class="edge">
<title>Node6&#45;&gt;Node7</title>
<g id="a_edge6_Node000006_Node000007"><a xlink:title=" ">
<path fill="none" stroke="#63b8ff" d="M318.25,-56.31C318.25,-48.12 318.25,-39.38 318.25,-32.22"/>
<polygon fill="#63b8ff" stroke="#63b8ff" points="314.75,-56.18 318.25,-66.18 321.75,-56.18 314.75,-56.18"/>
</a>
</g>
</g>
</g>
</svg>
