<?xml version="1.0" encoding="UTF-8" standalone="no"?>
<!DOCTYPE svg PUBLIC "-//W3C//DTD SVG 1.1//EN"
 "http://www.w3.org/Graphics/SVG/1.1/DTD/svg11.dtd">
<!-- Generated by graphviz version 14.1.1 (20251213.1925)
 -->
<!-- Title: ov2640_basic_set_image_resolution Pages: 1 -->
<svg width="300pt" height="66pt"
 viewBox="0.00 0.00 300.00 66.00" xmlns="http://www.w3.org/2000/svg" xmlns:xlink="http://www.w3.org/1999/xlink">
<g id="graph0" class="graph" transform="scale(1 1) rotate(0) translate(4 62)">
<title>ov2640_basic_set_image_resolution</title>
<!-- Node1 -->
<g id="Node000001" class="node">
<title>Node1</title>
<g id="a_Node000001"><a xlink:title="basic example set image resolution">
<polygon fill="#999999" stroke="#666666" points="126.25,-45 0,-45 0,-13 126.25,-13 126.25,-45"/>
<text xml:space="preserve" text-anchor="start" x="8" y="-31.5" font-family="Helvetica,sans-Serif" font-size="10.00">ov2640_basic_set_image</text>
<text xml:space="preserve" text-anchor="middle" x="63.12" y="-19.5" font-family="Helvetica,sans-Serif" font-size="10.00">_resolution</text>
</a>
</g>
</g>
<!-- Node2 -->
<g id="Node000002" class="node">
<title>Node2</title>
<g id="a_Node000002"><a xlink:href="group__ov2640__dsp__driver.html#ga8b37b2b470de2a78eacee686f13c4ba8" target="_top" xlink:title="set output height">
<polygon fill="white" stroke="#666666" points="292.25,-58 162.25,-58 162.25,-38 292.25,-38 292.25,-58"/>
<text xml:space="preserve" text-anchor="middle" x="227.25" y="-44.5" font-family="Helvetica,sans-Serif" font-size="10.00">ov2640_set_output_height</text>
</a>
</g>
</g>
<!-- Node1&#45;&gt;Node2 -->
<g id="edge1_Node000001_Node000002" class="edge">
<title>Node1&#45;&gt;Node2</title>
<g id="a_edge1_Node000001_Node000002"><a xlink:title=" ">
<path fill="none" stroke="#63b8ff" d="M126.34,-36.29C134.23,-37.22 142.38,-38.17 150.45,-39.12"/>
<polygon fill="#63b8ff" stroke="#63b8ff" points="149.94,-42.58 160.28,-40.27 150.75,-35.63 149.94,-42.58"/>
</a>
</g>
</g>
<!-- Node3 -->
<g id="Node000003" class="node">
<title>Node3</title>
<g id="a_Node000003"><a xlink:href="group__ov2640__dsp__driver.html#ga12ff048198533311ce812bc859dc9a41" target="_top" xlink:title="set output width">
<polygon fill="white" stroke="#666666" points="290.75,-20 163.75,-20 163.75,0 290.75,0 290.75,-20"/>
<text xml:space="preserve" text-anchor="middle" x="227.25" y="-6.5" font-family="Helvetica,sans-Serif" font-size="10.00">ov2640_set_output_width</text>
</a>
</g>
</g>
<!-- Node1&#45;&gt;Node3 -->
<g id="edge2_Node000001_Node000003" class="edge">
<title>Node1&#45;&gt;Node3</title>
<g id="a_edge2_Node000001_Node000003"><a xlink:title=" ">
<path fill="none" stroke="#63b8ff" d="M126.34,-21.71C134.79,-20.72 143.52,-19.7 152.15,-18.68"/>
<polygon fill="#63b8ff" stroke="#63b8ff" points="152.37,-22.18 161.89,-17.54 151.55,-15.23 152.37,-22.18"/>
</a>
</g>
</g>
</g>
</svg>
