<?xml version="1.0" encoding="UTF-8" standalone="no"?>
<!DOCTYPE svg PUBLIC "-//W3C//DTD SVG 1.1//EN"
 "http://www.w3.org/Graphics/SVG/1.1/DTD/svg11.dtd">
<!-- Generated by graphviz version 14.1.1 (20251213.1925)
 -->
<!-- Title: ov2640 driver function Pages: 1 -->
<svg width="287pt" height="378pt"
 viewBox="0.00 0.00 287.00 378.00" xmlns="http://www.w3.org/2000/svg" xmlns:xlink="http://www.w3.org/1999/xlink">
<g id="graph0" class="graph" transform="scale(1 1) rotate(0) translate(4 374)">
<title>ov2640 driver function</title>
<!-- Node1 -->
<g id="Node000001" class="node">
<title>Node1</title>
<g id="a_Node000001"><a xlink:title="ov2640 driver modules">
<polygon fill="#999999" stroke="#666666" points="112,-201 0,-201 0,-181 112,-181 112,-201"/>
<text xml:space="preserve" text-anchor="middle" x="56" y="-187.5" font-family="Helvetica,sans-Serif" font-size="10.00">ov2640 driver function</text>
</a>
</g>
</g>
<!-- Node4 -->
<g id="Node000004" class="node">
<title>Node4</title>
<g id="a_Node000004"><a xlink:href="group__ov2640__dsp__driver.html" target="_top" xlink:title="ov2640 dsp driver modules">
<polygon fill="white" stroke="#666666" points="278.75,-370 148,-370 148,-350 278.75,-350 278.75,-370"/>
<text xml:space="preserve" text-anchor="middle" x="213.38" y="-356.5" font-family="Helvetica,sans-Serif" font-size="10.00">ov2640 dsp driver function</text>
</a>
</g>
</g>
<!-- Node1&#45;&gt;Node4 -->
<g id="edge3" class="edge">
<title>Node1&#45;&gt;Node4</title>
<path fill="none" stroke="black" d="M63.94,-211.62C75.9,-244.03 103.51,-306.74 148,-341 152.43,-344.41 157.46,-347.21 162.72,-349.51"/>
<polygon fill="black" stroke="black" points="67.38,-210.84 60.74,-202.58 60.78,-213.18 67.38,-210.84"/>
</g>
<!-- Node8 -->
<g id="Node000008" class="node">
<title>Node8</title>
<g id="a_Node000008"><a xlink:href="group__ov2640__example__driver.html" target="_top" xlink:title="ov2640 example driver modules">
<polygon fill="white" stroke="#666666" points="270.5,-332 156.25,-332 156.25,-300 270.5,-300 270.5,-332"/>
<text xml:space="preserve" text-anchor="start" x="164.25" y="-318.5" font-family="Helvetica,sans-Serif" font-size="10.00">ov2640 example driver</text>
<text xml:space="preserve" text-anchor="middle" x="213.38" y="-306.5" font-family="Helvetica,sans-Serif" font-size="10.00"> function</text>
</a>
</g>
</g>
<!-- Node1&#45;&gt;Node8 -->
<g id="edge7" class="edge">
<title>Node1&#45;&gt;Node8</title>
<path fill="none" stroke="black" d="M70.27,-210.32C86.37,-232.49 115.44,-268.65 148,-291 152.65,-294.19 157.76,-297.05 163,-299.59"/>
<polygon fill="black" stroke="black" points="73.33,-208.59 64.7,-202.46 67.62,-212.64 73.33,-208.59"/>
</g>
<!-- Node6 -->
<g id="Node000006" class="node">
<title>Node6</title>
<g id="a_Node000006"><a xlink:href="group__ov2640__extend__driver.html" target="_top" xlink:title="ov2640 extend driver modules">
<polygon fill="white" stroke="#666666" points="266.75,-282 160,-282 160,-250 266.75,-250 266.75,-282"/>
<text xml:space="preserve" text-anchor="start" x="168" y="-268.5" font-family="Helvetica,sans-Serif" font-size="10.00">ov2640 extend driver</text>
<text xml:space="preserve" text-anchor="middle" x="213.38" y="-256.5" font-family="Helvetica,sans-Serif" font-size="10.00"> function</text>
</a>
</g>
</g>
<!-- Node1&#45;&gt;Node6 -->
<g id="edge5" class="edge">
<title>Node1&#45;&gt;Node6</title>
<path fill="none" stroke="black" d="M84.15,-207.15C101.99,-217.45 126.01,-230.74 148,-241 154.3,-243.94 161.05,-246.83 167.73,-249.54"/>
<polygon fill="black" stroke="black" points="86.14,-204.26 75.74,-202.24 82.61,-210.3 86.14,-204.26"/>
</g>
<!-- Node5 -->
<g id="Node000005" class="node">
<title>Node5</title>
<g id="a_Node000005"><a xlink:href="group__ov2640__function__driver.html" target="_top" xlink:title="ov2640 function driver modules">
<polygon fill="white" stroke="#666666" points="269.38,-232 157.38,-232 157.38,-200 269.38,-200 269.38,-232"/>
<text xml:space="preserve" text-anchor="start" x="165.38" y="-218.5" font-family="Helvetica,sans-Serif" font-size="10.00">ov2640 function driver</text>
<text xml:space="preserve" text-anchor="middle" x="213.38" y="-206.5" font-family="Helvetica,sans-Serif" font-size="10.00"> function</text>
</a>
</g>
</g>
<!-- Node1&#45;&gt;Node5 -->
<g id="edge4" class="edge">
<title>Node1&#45;&gt;Node5</title>
<path fill="none" stroke="black" d="M123.32,-201.67C134.57,-203.48 146.15,-205.34 157.07,-207.1"/>
<polygon fill="black" stroke="black" points="124.14,-198.26 113.71,-200.12 123.03,-205.17 124.14,-198.26"/>
</g>
<!-- Node7 -->
<g id="Node000007" class="node">
<title>Node7</title>
<g id="a_Node000007"><a xlink:href="group__ov2640__interface__driver.html" target="_top" xlink:title="ov2640 interface driver modules">
<polygon fill="white" stroke="#666666" points="270.88,-182 155.88,-182 155.88,-150 270.88,-150 270.88,-182"/>
<text xml:space="preserve" text-anchor="start" x="163.88" y="-168.5" font-family="Helvetica,sans-Serif" font-size="10.00">ov2640 interface driver</text>
<text xml:space="preserve" text-anchor="middle" x="213.38" y="-156.5" font-family="Helvetica,sans-Serif" font-size="10.00"> function</text>
</a>
</g>
</g>
<!-- Node1&#45;&gt;Node7 -->
<g id="edge6" class="edge">
<title>Node1&#45;&gt;Node7</title>
<path fill="none" stroke="black" d="M123.26,-180.34C133.99,-178.61 145.02,-176.84 155.5,-175.15"/>
<polygon fill="black" stroke="black" points="123.03,-176.83 113.71,-181.88 124.14,-183.74 123.03,-176.83"/>
</g>
<!-- Node2 -->
<g id="Node000002" class="node">
<title>Node2</title>
<g id="a_Node000002"><a xlink:href="group__ov2640__link__driver.html" target="_top" xlink:title="ov2640 link driver modules">
<polygon fill="white" stroke="#666666" points="259.62,-132 167.12,-132 167.12,-100 259.62,-100 259.62,-132"/>
<text xml:space="preserve" text-anchor="start" x="175.12" y="-118.5" font-family="Helvetica,sans-Serif" font-size="10.00">ov2640 link driver</text>
<text xml:space="preserve" text-anchor="middle" x="213.38" y="-106.5" font-family="Helvetica,sans-Serif" font-size="10.00"> function</text>
</a>
</g>
</g>
<!-- Node1&#45;&gt;Node2 -->
<g id="edge1" class="edge">
<title>Node1&#45;&gt;Node2</title>
<path fill="none" stroke="black" d="M84.15,-174.85C101.99,-164.55 126.01,-151.26 148,-141 154.3,-138.06 161.05,-135.17 167.73,-132.46"/>
<polygon fill="black" stroke="black" points="82.61,-171.7 75.74,-179.76 86.14,-177.74 82.61,-171.7"/>
</g>
<!-- Node3 -->
<g id="Node000003" class="node">
<title>Node3</title>
<g id="a_Node000003"><a xlink:href="group__ov2640__sensor__driver.html" target="_top" xlink:title="ov2640 sensor driver modules">
<polygon fill="white" stroke="#666666" points="266.75,-82 160,-82 160,-50 266.75,-50 266.75,-82"/>
<text xml:space="preserve" text-anchor="start" x="168" y="-68.5" font-family="Helvetica,sans-Serif" font-size="10.00">ov2640 sensor driver</text>
<text xml:space="preserve" text-anchor="middle" x="213.38" y="-56.5" font-family="Helvetica,sans-Serif" font-size="10.00"> function</text>
</a>
</g>
</g>
<!-- Node1&#45;&gt;Node3 -->
<g id="edge2" class="edge">
<title>Node1&#45;&gt;Node3</title>
<path fill="none" stroke="black" d="M70.27,-171.68C86.37,-149.51 115.44,-113.35 148,-91 152.65,-87.81 157.76,-84.95 163,-82.41"/>
<polygon fill="black" stroke="black" points="67.62,-169.36 64.7,-179.54 73.33,-173.41 67.62,-169.36"/>
</g>
<!-- Node9 -->
<g id="Node000009" class="node">
<title>Node9</title>
<g id="a_Node000009"><a xlink:href="group__ov2640__test__driver.html" target="_top" xlink:title="ov2640 test driver modules">
<polygon fill="white" stroke="#666666" points="260.38,-32 166.38,-32 166.38,0 260.38,0 260.38,-32"/>
<text xml:space="preserve" text-anchor="start" x="174.38" y="-18.5" font-family="Helvetica,sans-Serif" font-size="10.00">ov2640 test driver</text>
<text xml:space="preserve" text-anchor="middle" x="213.38" y="-6.5" font-family="Helvetica,sans-Serif" font-size="10.00"> function</text>
</a>
</g>
</g>
<!-- Node1&#45;&gt;Node9 -->
<g id="edge8" class="edge">
<title>Node1&#45;&gt;Node9</title>
<path fill="none" stroke="black" d="M64.63,-169.93C77.25,-137.85 105.37,-76.76 148,-41 153.33,-36.53 159.55,-32.8 165.98,-29.71"/>
<polygon fill="black" stroke="black" points="61.36,-168.68 61.09,-179.27 67.91,-171.16 61.36,-168.68"/>
</g>
</g>
</svg>
